<svg width="19" height="35" viewBox="0 0 19 35" fill="none" xmlns="http://www.w3.org/2000/svg">
<path d="M0.865166 2.19484C0.865677 2.77481 1.09648 3.33083 1.50683 3.74067L12.6952 14.929C13.0338 15.2676 13.3025 15.6695 13.4857 16.1119C13.669 16.5543 13.7633 17.0285 13.7633 17.5073C13.7633 17.9862 13.669 18.4604 13.4857 18.9028C13.3025 19.3452 13.0338 19.7471 12.6952 20.0857L1.52141 31.2594C1.12294 31.672 0.902456 32.2246 0.90744 32.7981C0.912424 33.3717 1.14248 33.9203 1.54806 34.3259C1.95364 34.7315 2.50229 34.9615 3.07585 34.9665C3.64941 34.9715 4.20197 34.751 4.61454 34.3525L15.7883 23.1875C17.2907 21.6822 18.1345 19.6422 18.1345 17.5154C18.1345 15.3885 17.2907 13.3486 15.7883 11.8432L4.59996 0.647549C4.29403 0.341421 3.90416 0.132922 3.4797 0.0484351C3.05523 -0.0360522 2.61525 0.00726931 2.21541 0.172918C1.81557 0.338566 1.47386 0.619096 1.23351 0.979011C0.993158 1.33893 0.864969 1.76205 0.865166 2.19484Z" fill="#43E2BD"/>
</svg>
