<svg width="19" height="35" viewBox="0 0 19 35" fill="none" xmlns="http://www.w3.org/2000/svg">
<path d="M18.1348 2.19484C18.1343 2.77481 17.9035 3.33083 17.4931 3.74067L6.30479 14.929C5.96614 15.2676 5.6975 15.6695 5.51422 16.1119C5.33094 16.5543 5.23661 17.0285 5.23661 17.5073C5.23661 17.9862 5.33094 18.4604 5.51422 18.9028C5.6975 19.3452 5.96614 19.7471 6.30479 20.0857L17.4785 31.2594C17.877 31.672 18.0975 32.2246 18.0925 32.7981C18.0875 33.3717 17.8575 33.9203 17.4519 34.3259C17.0463 34.7315 16.4977 34.9615 15.9241 34.9665C15.3505 34.9715 14.798 34.751 14.3854 34.3525L3.21166 23.1875C1.70924 21.6822 0.865433 19.6422 0.865433 17.5154C0.865433 15.3885 1.70924 13.3486 3.21166 11.8432L14.4 0.647549C14.7059 0.341421 15.0958 0.132922 15.5203 0.0484351C15.9447 -0.0360522 16.3847 0.00726931 16.7845 0.172918C17.1844 0.338566 17.5261 0.619096 17.7664 0.979011C18.0068 1.33893 18.135 1.76205 18.1348 2.19484Z" fill="#43E2BD"/>
</svg>
