<svg width="15" height="15" viewBox="0 0 15 15" fill="none" xmlns="http://www.w3.org/2000/svg">
<g clip-path="url(#clip0_402_104)">
<path d="M7.5 0C3.3579 0 0 3.3579 0 7.5C0 11.6421 3.3579 15 7.5 15C11.6421 15 15 11.6421 15 7.5C15 3.3579 11.6421 0 7.5 0ZM11.5146 5.388L6.6543 10.2477C6.4872 10.4151 6.2601 10.5093 6.0234 10.509C5.7867 10.509 5.5599 10.4151 5.3925 10.2477L3.4854 8.3412C3.2802 8.136 3.2802 7.8033 3.4854 7.5978C3.6906 7.3926 4.0233 7.3926 4.2288 7.5978L6.0234 9.3924L10.7712 4.6446C10.9764 4.4394 11.3091 4.4394 11.5146 4.6446C11.7198 4.8498 11.7198 5.1825 11.5146 5.388Z" fill="#AAAAAA"/>
</g>
<defs>
<clipPath id="clip0_402_104">
<rect width="15" height="15" fill="white"/>
</clipPath>
</defs>
</svg>
