<svg width="10" height="11" viewBox="0 0 10 11" fill="none" xmlns="http://www.w3.org/2000/svg">
<path d="M9.77271 1.03138C9.62354 0.879625 9.42125 0.794373 9.21032 0.794373C8.99939 0.794373 8.7971 0.879625 8.64793 1.03138L4.99998 4.74371L1.35203 1.03138C1.20286 0.879625 1.00056 0.794373 0.789639 0.794373C0.578713 0.794373 0.376422 0.879625 0.227253 1.03138C0.078128 1.18318 -0.00564575 1.38904 -0.00564575 1.60369C-0.00564575 1.81834 0.078128 2.0242 0.227253 2.176L3.87521 5.88833L0.227253 9.60066C0.078128 9.75247 -0.00564575 9.95833 -0.00564575 10.173C-0.00564575 10.3876 0.078128 10.5935 0.227253 10.7453C0.376422 10.897 0.578713 10.9823 0.789639 10.9823C1.00056 10.9823 1.20286 10.897 1.35203 10.7453L4.99998 7.03295L8.64793 10.7453C8.7971 10.897 8.99939 10.9823 9.21032 10.9823C9.42125 10.9823 9.62354 10.897 9.77271 10.7453C9.92183 10.5935 10.0056 10.3876 10.0056 10.173C10.0056 9.95833 9.92183 9.75247 9.77271 9.60066L6.12475 5.88833L9.77271 2.176C9.92183 2.0242 10.0056 1.81834 10.0056 1.60369C10.0056 1.38904 9.92183 1.18318 9.77271 1.03138Z" fill="#FF7F7F"/>
</svg>
