<svg width="13" height="13" viewBox="0 0 13 13" fill="none" xmlns="http://www.w3.org/2000/svg">
<path d="M11.734 0.279478C11.555 0.100528 11.3123 0 11.0592 0C10.806 0 10.5633 0.100528 10.3843 0.279478L6.00675 4.65702L1.62921 0.279478C1.4502 0.100528 1.20745 0 0.954342 0C0.70123 0 0.458482 0.100528 0.279478 0.279478C0.100528 0.458482 0 0.70123 0 0.954342C0 1.20745 0.100528 1.4502 0.279478 1.62921L4.65702 6.00675L0.279478 10.3843C0.100528 10.5633 0 10.806 0 11.0592C0 11.3123 0.100528 11.555 0.279478 11.734C0.458482 11.913 0.70123 12.0135 0.954342 12.0135C1.20745 12.0135 1.4502 11.913 1.62921 11.734L6.00675 7.35648L10.3843 11.734C10.5633 11.913 10.806 12.0135 11.0592 12.0135C11.3123 12.0135 11.555 11.913 11.734 11.734C11.913 11.555 12.0135 11.3123 12.0135 11.0592C12.0135 10.806 11.913 10.5633 11.734 10.3843L7.35648 6.00675L11.734 1.62921C11.913 1.4502 12.0135 1.20745 12.0135 0.954342C12.0135 0.70123 11.913 0.458482 11.734 0.279478Z" fill="#FF7F7F"/>
</svg>
