<svg width="25" height="25" viewBox="0 0 25 25" fill="none" xmlns="http://www.w3.org/2000/svg">
<path d="M24.2219 3.03125C24.3679 3.1777 24.4499 3.37604 24.4499 3.58282C24.4499 3.78959 24.3679 3.98794 24.2219 4.13438L22.5922 5.76563L19.4672 2.64063L21.0969 1.00938C21.2434 0.862917 21.4421 0.78064 21.6493 0.78064C21.8564 0.78064 22.0551 0.862917 22.2016 1.00938L24.2219 3.02969V3.03125ZM21.4875 6.86875L18.3625 3.74375L7.71723 14.3906C7.63124 14.4766 7.5665 14.5815 7.52817 14.6969L6.27036 18.4688C6.24755 18.5375 6.24431 18.6113 6.261 18.6818C6.2777 18.7523 6.31367 18.8167 6.3649 18.868C6.41613 18.9192 6.48059 18.9552 6.55109 18.9719C6.62159 18.9886 6.69534 18.9853 6.76411 18.9625L10.536 17.7047C10.6512 17.6668 10.7561 17.6026 10.8422 17.5172L21.4875 6.86875Z" fill="#222222"/>
<path fill-rule="evenodd" clip-rule="evenodd" d="M1.5625 21.0938C1.5625 21.7154 1.80943 22.3115 2.24897 22.751C2.68851 23.1906 3.28465 23.4375 3.90625 23.4375H21.0938C21.7154 23.4375 22.3115 23.1906 22.751 22.751C23.1906 22.3115 23.4375 21.7154 23.4375 21.0938V11.7188C23.4375 11.5115 23.3552 11.3128 23.2087 11.1663C23.0622 11.0198 22.8635 10.9375 22.6562 10.9375C22.449 10.9375 22.2503 11.0198 22.1038 11.1663C21.9573 11.3128 21.875 11.5115 21.875 11.7188V21.0938C21.875 21.301 21.7927 21.4997 21.6462 21.6462C21.4997 21.7927 21.301 21.875 21.0938 21.875H3.90625C3.69905 21.875 3.50034 21.7927 3.35382 21.6462C3.20731 21.4997 3.125 21.301 3.125 21.0938V3.90625C3.125 3.69905 3.20731 3.50034 3.35382 3.35382C3.50034 3.20731 3.69905 3.125 3.90625 3.125H14.0625C14.2697 3.125 14.4684 3.04269 14.6149 2.89618C14.7614 2.74966 14.8438 2.55095 14.8438 2.34375C14.8438 2.13655 14.7614 1.93784 14.6149 1.79132C14.4684 1.64481 14.2697 1.5625 14.0625 1.5625H3.90625C3.28465 1.5625 2.68851 1.80943 2.24897 2.24897C1.80943 2.68851 1.5625 3.28465 1.5625 3.90625V21.0938Z" fill="#222222"/>
</svg>
