<svg width="28" height="28" viewBox="0 0 28 28" fill="none" xmlns="http://www.w3.org/2000/svg">
<path d="M26.32 14.2917C26.32 13.3817 26.2383 12.5067 26.0867 11.6667H14V16.6367H20.9067C20.6033 18.235 19.6933 19.5884 18.3283 20.4984V23.73H22.4933C24.92 21.49 26.32 18.2 26.32 14.2917Z" fill="#4285F4"/>
<path d="M14 26.8333C17.465 26.8333 20.37 25.69 22.4933 23.73L18.3283 20.4983C17.185 21.2683 15.7267 21.735 14 21.735C10.6633 21.735 7.82833 19.4833 6.81333 16.45H2.54333V19.7633C4.655 23.9517 8.98333 26.8333 14 26.8333Z" fill="#34A853"/>
<path d="M6.81334 16.4384C6.55667 15.6684 6.405 14.8517 6.405 14C6.405 13.1484 6.55667 12.3317 6.81334 11.5617V8.24835H2.54334C1.66834 9.97502 1.16667 11.9234 1.16667 14C1.16667 16.0767 1.66834 18.025 2.54334 19.7517L5.86834 17.1617L6.81334 16.4384Z" fill="#FBBC05"/>
<path d="M14 6.27669C15.89 6.27669 17.57 6.93002 18.9117 8.19002L22.5867 4.51502C20.3583 2.43835 17.465 1.16669 14 1.16669C8.98333 1.16669 4.655 4.04835 2.54333 8.24835L6.81333 11.5617C7.82833 8.52835 10.6633 6.27669 14 6.27669Z" fill="#EA4335"/>
</svg>
