<svg width="15" height="16" viewBox="0 0 15 16" fill="none" xmlns="http://www.w3.org/2000/svg">
<path d="M7.5 0.0353088C6.01664 0.0353088 4.5666 0.482939 3.33323 1.32159C2.09986 2.16025 1.13856 3.35226 0.570907 4.74689C0.00324965 6.14152 -0.145275 7.67613 0.144114 9.15666C0.433503 10.6372 1.14781 11.9971 2.1967 13.0646C3.2456 14.132 4.58197 14.8589 6.03683 15.1534C7.49168 15.4479 8.99968 15.2967 10.3701 14.719C11.7406 14.1414 12.9119 13.1631 13.736 11.908C14.5601 10.6528 15 9.1772 15 7.66766C14.9979 5.64411 14.207 3.70406 12.8009 2.27319C11.3949 0.842321 9.48847 0.0374975 7.5 0.0353088ZM10 8.30369H8.125V10.2118C8.125 10.3805 8.05916 10.5422 7.94195 10.6615C7.82474 10.7808 7.66576 10.8478 7.5 10.8478C7.33424 10.8478 7.17527 10.7808 7.05806 10.6615C6.94085 10.5422 6.875 10.3805 6.875 10.2118V8.30369H5C4.83424 8.30369 4.67527 8.23668 4.55806 8.1174C4.44085 7.99812 4.375 7.83635 4.375 7.66766C4.375 7.49898 4.44085 7.3372 4.55806 7.21792C4.67527 7.09864 4.83424 7.03163 5 7.03163H6.875V5.12354C6.875 4.95486 6.94085 4.79308 7.05806 4.6738C7.17527 4.55453 7.33424 4.48751 7.5 4.48752C7.66576 4.48751 7.82474 4.55453 7.94195 4.6738C8.05916 4.79308 8.125 4.95486 8.125 5.12354V7.03163H10C10.1658 7.03163 10.3247 7.09864 10.4419 7.21792C10.5592 7.3372 10.625 7.49898 10.625 7.66766C10.625 7.83635 10.5592 7.99812 10.4419 8.1174C10.3247 8.23668 10.1658 8.30369 10 8.30369Z" fill="#43E2BD"/>
</svg>
