<svg width="218" height="32" viewBox="0 0 218 32" fill="none" xmlns="http://www.w3.org/2000/svg">
<path d="M56.056 23.112H51.84V31.204H44.836V9.206C44.836 5.296 46.06 3.834 50.14 3.834H56.056C61.938 3.834 66.256 6.758 66.256 13.184V13.762C66.256 20.188 61.938 23.112 56.056 23.112ZM51.84 10.736V17.196H55.716C57.994 17.196 59.286 15.496 59.286 13.592V13.354C59.286 11.45 57.994 9.75 55.716 9.75H52.826C52.044 9.75 51.84 9.92 51.84 10.736ZM90.8675 13.116C90.8675 16.346 89.1675 18.828 86.7535 20.358L93.2135 31.204H85.5295L80.4295 22.058H76.0775V31.204H69.1075V9.206C69.1075 5.296 70.3315 3.834 74.4115 3.834H80.6675C86.5495 3.834 90.8675 6.622 90.8675 12.708V13.116ZM76.0775 10.668V16.312H80.4975C82.7755 16.312 83.9655 14.85 83.9655 13.116V12.878C83.9655 11.144 82.7755 9.682 80.4975 9.682H77.0635C76.2815 9.682 76.0775 9.852 76.0775 10.668ZM93.801 21.48V14.034C93.801 6.214 100.091 3.664 105.191 3.664C110.189 3.664 116.581 6.214 116.581 14.034V21.48C116.581 29.3 110.189 31.85 105.191 31.85C100.193 31.85 93.801 29.3 93.801 21.48ZM109.645 21.684V13.83C109.645 10.838 107.333 9.478 105.191 9.478C103.049 9.478 100.737 10.838 100.737 13.83V21.684C100.737 24.404 103.253 26.036 105.191 26.036C107.129 26.036 109.645 24.404 109.645 21.684ZM127.628 5.738L135.924 20.494V6.928C135.924 4.854 137.386 3.698 139.018 3.698C140.65 3.698 142.112 4.854 142.112 6.928V28.348C142.112 30.422 140.31 31.476 138.78 31.612C137.148 31.748 135.176 31.102 134.326 29.64L126.03 14.952V31.204H119.842V7.166C119.842 5.058 121.678 3.936 123.242 3.766C124.874 3.596 126.778 4.276 127.628 5.738ZM152.744 10.77V14.408H162.026C163.998 14.408 164.78 16.04 164.78 17.4C164.78 18.76 164.032 20.29 162.026 20.29H152.744V24.268C152.744 25.084 152.948 25.254 153.73 25.254H162.671C164.678 25.254 165.426 26.784 165.426 28.178C165.426 29.572 164.644 31.204 162.671 31.204H151.078C146.998 31.204 145.774 29.742 145.774 25.832V9.206C145.774 5.296 146.998 3.834 151.078 3.834H162.332C164.304 3.834 165.086 5.466 165.086 6.86C165.086 8.254 164.338 9.784 162.332 9.784H153.73C152.948 9.784 152.744 9.954 152.744 10.77ZM176.071 5.738L184.367 20.494V6.928C184.367 4.854 185.829 3.698 187.461 3.698C189.093 3.698 190.555 4.854 190.555 6.928V28.348C190.555 30.422 188.753 31.476 187.223 31.612C185.591 31.748 183.619 31.102 182.769 29.64L174.473 14.952V31.204H168.285V7.166C168.285 5.058 170.121 3.936 171.685 3.766C173.317 3.596 175.221 4.276 176.071 5.738ZM199.521 3.834H204.587C210.469 3.834 216.657 6.962 216.657 16.414V18.624C216.657 28.076 210.469 31.204 204.587 31.204H199.521C195.441 31.204 194.217 29.742 194.217 25.832V9.206C194.217 5.296 195.441 3.834 199.521 3.834ZM209.721 19.168V15.87C209.721 11.892 207.579 9.716 204.383 9.716H202.139C201.357 9.716 201.153 9.886 201.153 10.702V24.336C201.153 25.152 201.357 25.322 202.139 25.322H204.383C207.579 25.322 209.721 23.146 209.721 19.168Z" fill="white"/>
<path d="M28.1633 3.42856H6.12245C2.74111 3.42856 0 6.16967 0 9.55101C0 12.9323 2.74111 15.6735 6.12245 15.6735H28.1633C31.5446 15.6735 34.2857 12.9323 34.2857 9.55101C34.2857 6.16967 31.5446 3.42856 28.1633 3.42856Z" fill="white"/>
<path d="M15.9184 19.3469H6.12245C2.74111 19.3469 0 22.088 0 25.4694C0 28.8507 2.74111 31.5918 6.12245 31.5918H15.9184C19.2997 31.5918 22.0408 28.8507 22.0408 25.4694C22.0408 22.088 19.2997 19.3469 15.9184 19.3469Z" fill="white"/>
</svg>
