<svg width="15" height="16" viewBox="0 0 15 16" fill="none" xmlns="http://www.w3.org/2000/svg">
<g clip-path="url(#clip0_148_407)">
<path d="M7.5 0.0352783C6.01664 0.0352783 4.5666 0.482908 3.33323 1.32156C2.09986 2.16022 1.13856 3.35223 0.570907 4.74686C0.00324965 6.14149 -0.145275 7.6761 0.144114 9.15663C0.433503 10.6372 1.14781 11.9971 2.1967 13.0645C3.2456 14.1319 4.58197 14.8588 6.03683 15.1533C7.49168 15.4478 8.99968 15.2967 10.3701 14.719C11.7406 14.1413 12.9119 13.1631 13.736 11.9079C14.5601 10.6528 15 9.17717 15 7.66763C14.9979 5.64408 14.207 3.70403 12.8009 2.27316C11.3949 0.84229 9.48847 0.0374669 7.5 0.0352783ZM10 8.30366H8.125V10.2118C8.125 10.3804 8.05916 10.5422 7.94195 10.6615C7.82474 10.7808 7.66576 10.8478 7.5 10.8478C7.33424 10.8478 7.17527 10.7808 7.05806 10.6615C6.94085 10.5422 6.875 10.3804 6.875 10.2118V8.30366H5C4.83424 8.30366 4.67527 8.23665 4.55806 8.11737C4.44085 7.99809 4.375 7.83632 4.375 7.66763C4.375 7.49895 4.44085 7.33717 4.55806 7.21789C4.67527 7.09861 4.83424 7.0316 5 7.0316H6.875V5.12351C6.875 4.95483 6.94085 4.79305 7.05806 4.67377C7.17527 4.55449 7.33424 4.48748 7.5 4.48748C7.66576 4.48748 7.82474 4.55449 7.94195 4.67377C8.05916 4.79305 8.125 4.95483 8.125 5.12351V7.0316H10C10.1658 7.0316 10.3247 7.09861 10.4419 7.21789C10.5592 7.33717 10.625 7.49895 10.625 7.66763C10.625 7.83632 10.5592 7.99809 10.4419 8.11737C10.3247 8.23665 10.1658 8.30366 10 8.30366Z" fill="#43E2BD"/>
</g>
<defs>
<clipPath id="clip0_148_407">
<rect width="15" height="15.2647" fill="white" transform="translate(0 0.0352783)"/>
</clipPath>
</defs>
</svg>
